HIERARCHY
ROOT Hips
{
	OFFSET	0	0	0
	CHANNELS 6  Xposition Yposition Zposition Xrotation Yrotation Zrotation
	JOINT Spine
	{
		OFFSET	0	7.0817	1.42564
		CHANNELS 3  Xrotation Yrotation Zrotation
		JOINT Spine1
		{
			OFFSET	0	12.1578	-2.17103
			CHANNELS 3  Xrotation Yrotation Zrotation
			JOINT Spine2
			{
				OFFSET	0	9.21601	0.987817
				CHANNELS 3  Xrotation Yrotation Zrotation
				JOINT Spine3
				{
					OFFSET	0	11.0288	3.27825
					CHANNELS 3  Xrotation Yrotation Zrotation
					JOINT Spine4
					{
						OFFSET	0	16.3261	-1.67169
						CHANNELS 3  Xrotation Yrotation Zrotation
						JOINT Neck
						{
							OFFSET	0	7.79399	-5.46013
							CHANNELS 3  Xrotation Yrotation Zrotation
							JOINT Head
							{
								OFFSET	0	9.35713	-2.80063
								CHANNELS 3  Xrotation Yrotation Zrotation
								End Site
								{
									OFFSET	0	19.5175	-0.944397
								}
							}
						}
					}
					JOINT LeftShoulder
					{
						OFFSET	-4.68942	19.8432	-9.35713
						CHANNELS 3  Xrotation Yrotation Zrotation
						JOINT LeftArm
						{
							OFFSET	-10.2519	-2.80063	3.59307
							CHANNELS 3  Xrotation Yrotation Zrotation
							JOINT LeftForeArm
							{
								OFFSET	-34.1249	-1.55752	2.4358
								CHANNELS 3  Xrotation Yrotation Zrotation
								JOINT LeftHand
								{
									OFFSET	-28.1809	-1.94746	2.01152
									CHANNELS 3  Xrotation Yrotation Zrotation
									End Site
									{
										OFFSET	-10.2846	-0.710727	0.734058
									}
								}
							}
						}
					}
					JOINT RightShoulder
					{
						OFFSET	4.68942	19.8432	-9.35713
						CHANNELS 3  Xrotation Yrotation Zrotation
						JOINT RightArm
						{
							OFFSET	10.2519	-2.80063	3.59307
							CHANNELS 3  Xrotation Yrotation Zrotation
							JOINT RightForeArm
							{
								OFFSET	34.1249	-1.55752	2.4358
								CHANNELS 3  Xrotation Yrotation Zrotation
								JOINT RightHand
								{
									OFFSET	28.1809	-1.94746	2.01152
									CHANNELS 3  Xrotation Yrotation Zrotation
									End Site
									{
										OFFSET	10.2846	-0.710727	0.734058
									}
								}
							}
						}
					}
				}
			}
		}
	}
	JOINT LeftUpLeg
	{
		OFFSET	-9.64475	-3.54085	-0.712821
		CHANNELS 3  Xrotation Yrotation Zrotation
		JOINT LeftLeg
		{
			OFFSET	-2.14734	-42.0762	-0.657743
			CHANNELS 3  Xrotation Yrotation Zrotation
			JOINT LeftFoot
			{
				OFFSET	-2.09898	-38.6909	3.32741
				CHANNELS 3  Xrotation Yrotation Zrotation
				JOINT LeftToeBase
				{
					OFFSET	0	-4.81787	-12.7963
					CHANNELS 3  Xrotation Yrotation Zrotation
					End Site
					{
						OFFSET	0	-1.92715	-7.70859
					}
				}
			}
		}
	}
	JOINT RightUpLeg
	{
		OFFSET	9.64475	-3.54085	-0.712821
		CHANNELS 3  Xrotation Yrotation Zrotation
		JOINT RightLeg
		{
			OFFSET	2.14734	-42.0762	-0.657743
			CHANNELS 3  Xrotation Yrotation Zrotation
			JOINT RightFoot
			{
				OFFSET	2.09898	-38.6909	3.32741
				CHANNELS 3  Xrotation Yrotation Zrotation
				JOINT RightToeBase
				{
					OFFSET	0	-4.81787	-12.7963
					CHANNELS 3  Xrotation Yrotation Zrotation
					End Site
					{
						OFFSET	0	-1.92715	-7.70859
					}
				}
			}
		}
	}
}
MOTION
Frames: 10
Frame Time: 0.020408
 291.503 54.4027 35.6618 63.254 -19.3367 -3.73026 0.0204796 0.165422 -7.05743 165.913 179.674 168.237 165.861 179.021 168.236 170.018 179.835 172.943 176.605 179.861 177.652 4.06022 -8.64573 12.7143 1.29091 -28.79 1.96164 1.42282 -24.5874 3.0879 138.027 -107.154 154.122 136.554 -167.748 166.191 -0 -14.3324 -1.75658 179.293 161.079 -178.482 24.706 39.1754 -59.9465 173.421 147.698 -174.728 -0 -46.1642 16.0753 24.2603 37.6097 -10.4346 152.476 179.61 178.5 147.759 -177.424 167.451 140.439 180 -180 44.1409 -0.292065 4.97273 117.533 152.367 -178.242 152.278 179.255 178.479 146.276 180 -180
 290.867 54.8267 35.3465 63.5878 -20.0699 -3.7569 0.00839818 0.0666556 -7.18106 166.013 179.869 168.032 165.859 179.606 168.031 170.036 179.933 172.819 176.799 179.866 177.61 4.45314 -8.37789 12.7039 1.42983 -28.4176 2.0321 0.95519 -25.1786 2.07349 137.177 -107.052 154.233 136.959 -168.403 166.942 -0 -14.3899 -1.58989 179.103 159.656 -178.066 24.9054 39.6982 -60.1995 172.515 147.383 -174.383 -0 -47.3517 17.8818 23.2082 37.9102 -9.35593 151.603 178.537 177.189 148.538 -177.886 165.122 140.853 180 -180 43.558 1.10658 5.10254 117.67 152.765 -178.495 153.01 178.706 177.94 145.774 180 -180
 290.513 54.926 35.2467 63.5816 -20.8556 -4.20836 0.00924996 0.0738282 -7.1414 166.007 179.854 168.098 165.846 179.563 168.097 169.994 179.926 172.859 176.881 179.87 177.623 4.72025 -8.39601 12.4632 1.51028 -28.2094 1.99794 0.47121 -25.6801 1.02305 135.101 -107.068 152.151 137.182 -168.799 167.339 -0 -14.8593 -1.30512 178.762 158.922 -177.326 24.6019 39.9041 -59.699 171.966 147.537 -174.039 -0 -48.7509 19.2194 22.3864 38.541 -8.52116 152.1 177.543 177.233 148.624 -178.369 163.716 141.237 180 -180 43.3942 2.04684 5.80384 117.88 152.366 -179.015 152.898 178.568 178.077 145.818 180 -180
 290.157 54.9078 35.4009 63.7501 -20.3868 -3.65158 0.0167279 0.130661 -7.29558 166.146 179.742 167.841 166.071 179.227 167.84 170.187 179.869 172.704 176.665 179.858 177.572 4.0949 -8.9788 11.7532 1.26309 -28.2179 1.69188 0.135601 -26.0698 0.294448 131.599 -106.568 148.344 137.292 -168.472 167.204 -0 -15.1466 -1.06403 178.482 159.185 -176.723 24.36 39.5293 -59.158 171.656 148.147 -174.011 -0 -49.9298 20.1565 22.44 38.5197 -8.52859 152.666 176.882 176.889 148.378 -178.061 162.799 141.29 180 -180 43.1929 2.17926 6.019 118.184 151.876 -179.248 153.061 178.868 177.004 145.565 180 -180
 289.532 55.5224 35.0711 64.2648 -21.0591 -3.5621 0.0246245 0.192698 -7.28227 166.05 179.62 167.863 166.044 178.86 167.861 170.162 179.807 172.718 176.512 179.852 177.577 3.79955 -9.14535 11.4882 1.15259 -28.1406 1.57851 0.092728 -26.4667 0.20138 128.182 -106.137 144.756 137.364 -167.673 166.984 -0 -15.4082 -0.85683 178.607 159.01 -176.992 24.0846 39.3109 -59.147 171.268 148.982 -173.998 -0 -51.0202 21.1458 20.8473 39.6424 -7.86663 153.341 176.944 177.027 148.887 -177.633 163.409 141.007 180 -180 42.7136 1.96111 6.95148 117.74 151.459 -178.877 153.694 178.789 175.507 145.167 180 -180
 289.627 55.1955 35.1951 64.2034 -19.8542 -3.08319 0.0200544 0.153226 -7.45656 166.195 179.698 167.572 166.166 179.095 167.571 170.287 179.847 172.543 176.514 179.849 177.519 3.61936 -9.01654 11.7013 1.10232 -28.1515 1.62767 0.527721 -26.9458 1.14624 126.786 -106.337 143.454 137.56 -167.645 166.425 -0 -15.4137 -0.764383 179.079 158.744 -178.01 23.5247 38.7609 -58.3532 170.569 149.52 -173.628 -0 -51.6545 22.2139 22.3114 39.4572 -9.35546 152.714 176.455 178.369 148.542 -179.97 158.61 142.88 180 -180 42.5449 1.80139 6.87137 117.371 150.769 -179.045 154.043 179.2 175.516 145.28 180 -180
 289.48 56.1171 34.7763 64.9476 -19.7623 -3.1816 0.011749 0.0888641 -7.53159 166.285 179.825 167.447 166.219 179.475 167.447 170.409 179.911 172.468 176.431 179.844 177.494 3.28583 -9.15298 11.5966 0.984389 -28.2061 1.55255 0.664537 -26.8675 1.44344 125.944 -106.563 144.016 137.682 -166.848 166.108 -0 -15.4276 -0.664067 179.421 159.916 -178.752 22.8892 38.2233 -58.6217 169.989 149.786 -173.433 -0 -52.4854 23.4495 19.5945 39.3442 -7.34769 153.632 176.951 176.431 149.291 -176.886 164.012 140.738 180 -180 40.8398 2.61063 7.36832 116.432 149.399 -178.368 155.665 178.808 175.148 145.523 180 -180
 289.617 55.9625 34.8128 65.189 -20.4923 -3.17556 0.0245813 0.185271 -7.55773 166.484 179.635 167.404 166.486 178.906 167.402 170.476 179.815 172.442 176.598 179.85 177.485 3.58999 -8.94521 11.6601 1.09367 -27.9847 1.62406 1.38873 -26.5862 3.01717 124.686 -106.942 143.227 137.763 -166.212 165.885 -0 -15.1708 -0.573109 179.832 160.353 -179.637 21.6459 37.6724 -57.9763 169.157 150.377 -173.036 -0 -53.0975 24.9547 19.4366 39.2059 -7.59555 153.583 175.943 176.515 149.286 -176.928 163.957 140.728 180 -180 40.9642 2.66672 7.1524 116.384 148.972 -178.386 155.248 178.586 175.168 145.472 180 -180
 289.84 55.4334 34.897 65.6357 -19.1703 -3.16213 0.00962116 0.0718876 -7.62295 166.542 179.859 167.295 166.458 179.575 167.295 170.574 179.928 172.377 176.54 179.847 177.464 3.23756 -8.50277 11.9494 0.998311 -27.5431 1.71469 1.70315 -26.6572 3.70102 126.138 -107.618 144.977 137.944 -165.881 165.386 -0 -14.7886 -0.557408 0.38572 20.0181 -0.830851 21.7165 37.5118 -57.6854 168.621 151.077 -173.152 -0 -53.8184 26.1359 19.9229 38.9698 -7.91357 153.116 175.474 176.721 148.832 -177.724 160.253 141.579 180 -180 40.7239 2.44533 7.68254 116.109 148.849 -178.907 154.989 178.913 175.737 146.216 180 -180
 289.936 55.5714 34.8748 65.9176 -19.6393 -2.91034 0.0219219 0.162992 -7.66013 166.485 179.679 167.233 166.501 179.038 167.231 170.575 179.837 172.34 176.382 179.839 177.452 2.82806 -8.23289 12.0199 0.873263 -27.1151 1.72701 1.82062 -27.2659 3.9569 125.382 -107.732 143.942 138.087 -165.698 165.116 -0 -14.572 -0.444057 0.774937 19.4291 -1.66709 21.368 36.7918 -57.012 168.262 151.79 -173.163 -0 -54.7053 27.1504 19.5811 39.2188 -8.4979 153.349 174.944 177.1 148.831 -177.643 159.776 141.693 180 -180 40.5235 3.28507 6.59266 115.857 148.984 -178.597 155.574 178.934 174.988 145.971 180 -180
